<?xml version="1.0" encoding="UTF-8"?><svg id="Layer_1" xmlns="http://www.w3.org/2000/svg" viewBox="0 0 88.66 98.93"><defs><style>.cls-1{fill:none;stroke:#fff;stroke-linecap:round;stroke-linejoin:round;stroke-width:2.48px;}.cls-2{fill:#4b98d1;}</style></defs><path class="cls-2" d="M88.49,52.27C88.88,20.49,51.19-.06,23.51,14.63c-9.66,5.11-14.18,8.6-19.82,24.02C-.85,51.06,.05,62.96,4.71,72.36c5.01,16.29,17.88,23.08,34.95,25.91,31.93,5.28,50.61-21.98,48.36-40.51,.28-1.81,.44-3.65,.46-5.49ZM17.41,18.77c-3.88,3.2-6.88,6.75-9.53,11.15,2.08-4.1,5.59-8.69,9.53-11.15Zm2.98-1.58c.9-.4,1.98-.79,3.03-1.1-1.47,1.02-2.74,2.11-3.93,3.31-1.93,.95-3.52,2.06-4.95,3.35-4.84,4.4-9.02,14.13-10.66,22.04,.73-11.53,7.3-21.22,16.5-27.6Zm24.78-4.95h0c21.19,2.89,39.64,14.03,40.67,36.87-2.1-5.83-5.92-12.32-10.87-17.29-1.04-1.04-3.23-5.4-9.1-9.14-5.55-6.45-12.37-8.23-20.31-8.36-2.21-.36-4.47-.38-7.53,.23-.78-.02-1.85-.03-3.43,.3-2.58-.25-5.31-.31-7.84,.02,5.66-3.01,12.12-3.47,18.42-2.63Zm31.53,68.53c5.43-7.67,9.37-17.49,9.83-26.87,.35,1.4,.65,2.94,.81,4.39-1.42,8.45-5.12,16.09-10.64,22.47Zm-9.22,7.91c4.65-3.46,8.68-8.13,11.56-12.48-3.62,6.71-7.52,10.17-11.56,12.48Zm-26.23,7.62c-3.3-.45-6.51-1.34-9.58-2.63,.74,.37-4.16-1.62-8.33-4.81,1.43,.59,2.89,1.11,4.37,1.57,6.24,1.94,8.5,2.4,10.93,2.82,12.35,3.15,20.55,1.23,30.08-4.63-7.14,5.89-16.93,9.02-27.46,7.67Zm-19.64-8.83c-.59-.51-1.16-1.04-1.72-1.58,2,.99,2.32,1.54,5.06,2.97-1.19-.44-2.23-.88-3.34-1.39Zm-13.05-21.42c.58,1.07,1.22,2.12,1.9,3.14,1.42,3.59,3.32,7.64,9.58,13.96-4.24-2.31-8.48-5.63-11.48-17.1Zm-1.43-29.94c-1.43,5.68-2.53,18.45-1.02,23.93,0,1.23,.05,2.47,.14,3.7-3.61-12.03-3.05-17.56,.88-27.63Zm-.93,20.96c-.14-1.15-.18-2.31-.19-3.47,.09,.69,.19,1.37,.3,2.05-.04,.43-.08,1.01-.11,1.43Zm.58-10.24c-.2,1.6-.32,3.21-.37,4.82-.17-2.1-.21-2.42,.37-4.82Zm-.48-.65c.38-9.76,2.78-18.42,10.79-24.01-1.56,2.01-2.63,3.75-3.61,5.76-1.72,2.49-4.47,8.03-5.89,14.3-.33,.79-.86,2.32-1.29,3.95Zm12.6-25.13c.48-.26,.96-.51,1.45-.74-1.23,.96-2.28,1.93-3.29,3,.56-.75,1.17-1.51,1.84-2.27Zm7-2.52c-3.22,1.3-5.85,2.91-8.1,4.77,3.22-3.38,5.61-4.31,8.1-4.77Zm14.92-1.89c-.78,.19-1.68,.41-2.38,.62-2.35-.06-1.29,.07-4.01,0,2.52-.54,5.28-.79,6.39-.62Zm19.43,9.92c2.01,1.94,3.6,4.54,4.62,7.18-5.72-6.71-12.75-10.38-21.04-13.17,5.72,.77,11.38,3.19,16.42,5.99Zm10.38,7.38c.36,1.1,.69,2.25,.98,3.55-1.2-2.45-.76-1.96-1.88-4.39,.3,.28,.61,.55,.91,.84Zm-.35-3.82c.38,.44,.75,.89,1.11,1.35-.28-.23-.55-.45-.83-.68-.09-.23-.19-.45-.28-.67Zm5.78,10.08c1.64,5.96,.57,13.98-1.32,20.14,.14-4.68,1.08-10.37-1.08-17.6-.25-2.51-.68-4.77-1.39-7.17,1.59,1.67,2.7,3.09,3.79,4.62Zm8.59,12.69c-1.29-7.26-5.63-13.03-6.16-13.99-.31-.99-.69-1.96-1.13-2.9,4.19,4.73,6.78,10.39,7.29,16.88Zm-.31,6.84c.11-3.26-.49-6.53-1.6-9.66-.42-2.15-1.04-4.16-1.81-6.12,.48,.93,.94,1.88,1.35,2.85v-.03c1.67,4.03,2.73,8.6,2.07,12.95Zm-5.9,14.08c1.68-2.81,3.45-5.9,4.45-11.12-.35,4.03-1.34,7.3-4.45,11.12Zm-50.18,14.71c4.71,.6,8.76,.52,10.3,.54,3.16,.58,6.74,.99,9.87,.99,10.85,0,19.99-3.31,27.69-11.28-11.31,14.05-32.88,17.89-47.86,9.75Zm11.66,4.35c11.89,1.21,23.54-1.37,32.34-9.1-2.59,2.47-5.87,5.16-8.97,6.87-8.78,3.4-19.22,3.17-23.38,2.23Zm18.27-.05c-3.34,1.52-6.43,1.75-10.16,1.18,3.76-.04,7.34-.51,10.16-1.18Zm-38.12-10.61c1.93,1.41,3.9,2.47,6.46,3.35-1.56-.37-3-.82-4.43-1.42-.43-.26-1.47-1.2-2.03-1.93Zm-2.76-3.35c2,2.21,4.56,4.01,7.14,5.47-2.89-1.31-5.31-2.87-7.14-5.47Zm-5.8-8.22c1.7,2.35,3.13,5.25,4.04,6.74-1.77-2.12-3.03-4.41-4.04-6.74Zm.77-1.62c-1.47-4.03-2.42-8.3-2.91-12.48,1.78,8.32,4.97,16.11,11.27,21.94-2.87-1.91-5.27-4.24-8.36-9.46Zm-2.39-14.44c-1.14-3.15-.58-6.68,.08-8.75-.35,2.9-.37,5.84-.08,8.75Zm12.24-31.78c-2.84,3.18-3.49,3.07-6.56,6.76,2.08-3.14,3.93-4.93,6.56-6.76Zm9.78,57.63c.42,.5,.86,.99,1.32,1.46-1.18-.52-2.34-1.07-3.48-1.66-.58-.6-1.14-1.23-1.67-1.87,1.24,.76,2.52,1.45,3.83,2.07Zm7.93-60.56c-1.19,0-3.66,.32-6.61,1.18,2.73-1.33,5.83-1.4,6.61-1.18Zm-20.54,59.32c6.77,4.79,10.95,5.96,14.46,7.32-2.89-.13-9.32-2.62-14.46-7.32Zm-3.62-7.72c6.16,9.06,15.34,12.21,16.62,13.17-5.82-1.73-12.8-6.06-16.62-13.17Zm-.32-1.76c2.94,4.07,7.42,7.47,11.78,9.96,.81,1.02,1.69,1.98,2.63,2.87-6.12-3.2-10.78-6.95-14.41-12.83Zm17.24,12.72c.73,.33,1.47,.65,2.22,.95,.35,.3,.71,.59,1.09,.87-1.36-.24-2.47-.88-3.3-1.82Zm-2.93-60.12c-4.24,1.75-6.38,2.76-9.85,5.62,.62-.88,1.26-1.7,2.09-2.67,2.74-1.84,5.94-3.28,9.05-4.27-.45,.41-.88,.86-1.28,1.33ZM14.04,59.74c1.87,4.79,4.19,8.61,7.22,12.67-3.1-3.09-5.67-6.95-7.22-12.67Zm.04-23.19c-1.38,4.18-2.21,8.73-2.14,13.76-.42-2.99-.49-6.01-.1-9.3,.98-2.26,1.79-3.68,2.24-4.46Zm-.02-2.31c1.37-2.83,3.17-5.23,3.79-5.78-.62,.98-1.17,1.91-1.76,3.09-.73,.86-1.4,1.76-2.03,2.69Zm-2.11-.88c1.38-3.91,3.25-7.26,8.32-10.79-3.44,3.06-6.27,6.68-8.32,10.79Zm.9,1.2c-.74,2.32-.49,2.32-1.93,5.12,.32-1.16,1.3-4.14,1.93-5.12Zm-1.51,7.54c-.44,5.1,.46,17.57,5.41,25.61,1.7,2.77,4.01,5.16,6.51,7.23,.69,.82,1.4,1.62,2.14,2.39,.18,.26,.36,.52,.55,.79-6.07-3.74-10.42-7.98-13.13-14.37-3.86-9.33-2.1-20.26-1.47-21.64Zm14.98,46.03c.72,.45,1.45,.87,2.2,1.27,.98,.51,1.98,.99,3,1.42-1.77-.42-2.03-.5-3.52-1.12-1.62-.69-3.19-1.5-4.7-2.41,.99,.34,2,.61,3.03,.84Zm11.22-3.71c1.77,.61,3.42,1.08,5.35,1.48-.52,.1-1.04,.19-1.57,.27-1.25-.39-2.4-.88-3.78-1.75Zm29.37-12.53c-3.06,5.2-6.22,7.74-11.04,9.95,1.21-.84,1.9-1.47,2.68-2.25,3.71-2.09,6.29-4.62,8.36-7.7Zm1.36,1.88c3.65-6.11,4.86-13.97,5.37-21.07,2.95,14.04-10.75,31.97-17.69,32.92h0c-1.27,.17-2.55,.28-3.84,.33,8.38-2.72,12.79-6.57,16.16-12.17Zm5.95-20.52c-.13-.71-.29-1.43-.47-2.12,.1-.82,.13-2.56,.14-3.38,.22,1.4,.37,3.43,.33,5.5Zm-1.67,19.51c-.78,1.44-1.66,2.82-2.65,4.13,1.31-2.58-.07-.44,2.65-4.13Zm-11.52,14.28c1.43-.83,2.71-1.76,3.9-2.94,1.72-.66,3.4-1.45,5.03-2.32-2.49,2.49-5.59,4.11-8.93,5.26Zm-.15-.98c-.98,1.54-2.83,2.2-5.16,2.27,1.1-.4,2.18-.88,3.2-1.45,.67-.25,1.32-.52,1.96-.82Zm-8.36,.66c-1.28,.44-2.62,.58-4.1,.43,.34-.11,.9-.3,1.25-.41,.96,.03,1.9,.02,2.85-.02Zm19-4.7c.78-.68,5.35-5.19,6.28-6.16-1.85,2.28-3.96,4.35-6.28,6.16Zm2.12-3.51c5.56-7.98,6.91-18.3,5.81-28.12,.11-1.39,.17-2.82,.13-4.24,6.79,14.19-1.03,28.83-5.94,32.35Zm5.68-35.71c-.06-.49-.14-.99-.24-1.48,.76,1.55,1.33,2.91,1.92,4.63-.39-.78-.8-1.65-1.68-3.15Zm-.25,12.41c.21,8.8-1.74,17.74-7.29,24.56-1.64,1.01-3.55,2.02-5.55,2.9,8.28-6.71,11.87-16.83,12.83-27.46Zm-6.61-8.26c-1.5-4.37-3.52-8.21-6.85-12.33-.81-2.49-2.36-5.38-4.17-7.41,1.62,.94,3.52,1.95,6.2,5.38,1.53,1.99,2.79,4.19,3.8,6.48,.7,2.67,1.1,5.09,1.02,7.87Zm-17.11-26.54c4.57,1.95,5.56,2.69,7.4,4.25-2.78-1.35-5.51-2.89-13.2-5.94,5.5,1.52,4.86,1.3,5.8,1.69h0Zm-1.05,1.48c5.78,2.02,8.58,3.81,12.89,7.59,.32,.45,.62,.91,.91,1.38-6.32-4.93-9-6.99-13.8-8.97Zm15.53,12.43c-.64-1.01-1.36-2.02-2.13-2.93,.43,.34,.85,.69,1.27,1.04,.37,.75,.76,1.62,.86,1.89Zm-.9-2.79c-.22-.39-.3-.55-.58-1.01,.9,.82,.96,.89,1.64,1.55,.06,.17,.13,.35,.19,.53-.41-.36-.82-.72-1.24-1.06Zm-3-4.43c.89,.49,1.77,1,2.64,1.54,.13,.28,.26,.56,.38,.84-1.1-.95-2.02-1.66-3.01-2.38Zm-1.85-1.77c-.38-.36-.77-.7-1.16-1.04,1.39,.45,2.41,1.21,3.22,2.13-.68-.38-1.37-.74-2.06-1.1Zm-13.99-9.64c-.51-.22-1.04-.43-1.56-.62,5.98,.5,10.17,1.97,14.75,6.17-1.97-.98-8.51-4.86-13.19-5.55Zm-7.3,1.91c.45-.08,.9-.15,1.34-.22,.55,.17,1.09,.34,1.63,.52-1.81,0-.22,.09-2.97-.3Zm2.79-1.91c-.86-.23-2.12-.5-3.42-.72,1.57,0,2.9,.07,4.91,.58-.53,.03-.98,.07-1.5,.13Zm11.68,64.58c-1.75,1.53-6.91,4.44-12.41,5.22-3.58-.59-6.45-1.47-9.52-2.69-.56-.49-1.09-1.01-1.6-1.56,8.19,3.22,16.42,2.57,23.53-.97ZM35.5,18.21c-1.73,.08-5.79,.5-7.11,1.16,.87-.57,4.73-1.47,7.11-1.16Zm-6.87-.93h-.03c-.77,.03-1.54,.08-2.31,.16,1.29-.51,2.63-.84,4-1.08-.57,.28-1.12,.58-1.66,.91Zm4.87,1.87c-.31,.17-.62,.35-.92,.54-2.93,.53-5.49,1.38-7.79,2.5,.18-.16,.35-.32,.53-.48,2.41-1.42,5.2-2.4,8.18-2.56Zm51.39,41.87c.42-4.06,.98-7.95-.48-13.48,.55,1.33,1.05,2.68,1.49,4.06-.01,3.59-.35,6.45-1,9.42ZM33.14,15.23c-.33,.1-.65,.21-.97,.33-2.86,.31-5.17,.82-7.78,2.16-1.05,.2-2.07,.5-3.06,.87,1.28-1.15,2.7-2.15,4.17-3.03,2.51-.49,5-.52,7.65-.34ZM4.31,38.53c-.7,3.14-1.02,6.41-.99,9.51-1.02,6.91-1.02,13.95,.5,20.86C.06,58.99,.6,48.55,4.31,38.53Zm1.19,34.13c-2.12-6.67-2.61-13.71-2.01-20.63,.41,4.79,1.52,9.74,3.01,14.09,1.21,8.96,5.56,15.2,11.86,18.93,.53,.55,1.07,1.09,1.62,1.61-6.19-3.13-11.13-7.49-14.49-14Zm36.03,25.61c-8.02-1.09-18.62-4.61-25.3-9.73l.02,.02c-4.07-3.16-7.38-7.21-9.67-12.93,3.84,5.92,8.7,9.57,15.02,12.47,14.2,12.07,35.97,12.82,50.81-2.18,7.18-6.17,12.84-15.14,15.08-25.3,.32,16.9-17.09,41.52-45.96,37.65Zm46.17-42.6c-.28-1.47-.65-2.92-1.1-4.34C86.6,15.39,41.62,4.76,24.71,15.23c-.82,.19-1.54,.4-2.28,.64,7.06-4.34,17-6.43,26.55-5.18h-.01c4.12,.56,8.15,1.72,11.98,3.33h.02c.78,.4,5.61,2.25,11.26,6.61h0c10.78,8.4,16.84,21.36,15.48,35.04Z"/><circle class="cls-2" cx="45.97" cy="53.24" r="36.75"/><g><g><path class="cls-1" d="M41.99,83.92s.33-5.2-1.28-7.16c-2.25-2.75-2.5-3.85-2.5-8.49v-7.11c0-1.1,.99-1.98,2.21-1.98,.61,0,1.16,.22,1.57,.58,.4,.36,.65,.86,.65,1.4v-12.89c0-1.22,.99-2.21,2.21-2.21,.61,0,1.17,.25,1.57,.65,.4,.4,.65,.96,.65,1.57v-3.01c0-1.22,.99-2.21,2.21-2.21,.61,0,1.17,.25,1.57,.65,.4,.4,.65,.95,.65,1.57v3.01c0-1.22,.99-2.21,2.21-2.21h0c1.22,0,2.21,.99,2.21,2.21v3.44c0-1.22,.99-2.21,2.21-2.21,.61,0,1.17,.25,1.57,.65,.4,.4,.65,.96,.65,1.57,0,0,.47,13.34,0,18.73-.45,5.21-2.58,7.24-2.58,9.61v3.86"/><line class="cls-1" x1="47.07" y1="62.16" x2="47.07" y2="48.36"/><line class="cls-1" x1="42.63" y1="68.89" x2="42.63" y2="57.12"/><line class="cls-1" x1="51.49" y1="62.16" x2="51.49" y2="48.36"/><line class="cls-1" x1="55.9" y1="62.16" x2="55.9" y2="51.72"/></g><path class="cls-1" d="M39.55,79.79c-16.15-11.17-23.34-21.74-23.34-31.98,0-9.11,5.56-16.91,13.63-16.91,9.12,0,13.63,7.98,13.63,7.98,0,0,4.52-7.98,13.63-7.98,8.07,0,13.63,7.79,13.63,16.91,0,6.2-2.64,12.52-8.3,19.02"/><path class="cls-1" d="M21.25,45.93c.25-3.32,2-6.35,4-8.17"/></g></svg>